<svg xmlns="http://www.w3.org/2000/svg" xmlns:xlink="http://www.w3.org/1999/xlink" viewBox="0,0,256,256" width="100px" height="100px"><g fill="none" fill-rule="nonzero" stroke="none" stroke-width="1" stroke-linecap="butt" stroke-linejoin="miter" stroke-miterlimit="10" stroke-dasharray="" stroke-dashoffset="0" font-family="none" font-weight="none" font-size="none" text-anchor="none" style="mix-blend-mode: normal"><g transform="scale(2.56,2.56)"><circle cx="13" cy="29" r="2" fill="#ee3e54"></circle><circle cx="77" cy="13" r="1" fill="#f1bc19"></circle><circle cx="50" cy="50" r="37" fill="#fce0a2"></circle><circle cx="83" cy="15" r="4" fill="#f1bc19"></circle><circle cx="87" cy="24" r="2" fill="#ee3e54"></circle><circle cx="81" cy="76" r="2" fill="#fbcd59"></circle><circle cx="15" cy="63" r="4" fill="#fbcd59"></circle><circle cx="25" cy="87" r="2" fill="#ee3e54"></circle><circle cx="18.5" cy="53.5" r="2.5" fill="#ffffff"></circle><circle cx="21" cy="67" r="1" fill="#f1bc19"></circle><circle cx="80" cy="34" r="1" fill="#ffffff"></circle><path d="M37,71.3c-4.025,0 -7.3,-3.274 -7.3,-7.3v-28c0,-4.025 3.274,-7.3 7.3,-7.3h28c4.025,0 7.3,3.274 7.3,7.3v28c0,4.025 -3.274,7.3 -7.3,7.3z" fill="#4792dd"></path><path d="M65,29.4c3.639,0 6.6,2.961 6.6,6.6v28c0,3.639 -2.961,6.6 -6.6,6.6h-28c-3.639,0 -6.6,-2.961 -6.6,-6.6v-28c0,-3.639 2.961,-6.6 6.6,-6.6h28M65,28h-28c-4.418,0 -8,3.582 -8,8v28c0,4.418 3.582,8 8,8h28c4.418,0 8,-3.582 8,-8v-28c0,-4.418 -3.582,-8 -8,-8z" fill="#472b29"></path><path d="M68.446,47.511c-0.276,0 -0.5,-0.224 -0.5,-0.5v-3.706c0,-0.276 0.224,-0.5 0.5,-0.5c0.276,0 0.5,0.224 0.5,0.5v3.706c0,0.276 -0.224,0.5 -0.5,0.5z" fill="#472b29"></path><path d="M68.508,41.06c-0.276,0 -0.5,-0.224 -0.5,-0.5v-1.913c0,-0.276 0.224,-0.5 0.5,-0.5c0.276,0 0.5,0.224 0.5,0.5v1.913c0,0.276 -0.223,0.5 -0.5,0.5z" fill="#472b29"></path><path d="M64.251,67.938h-26.439c-2.619,0 -4.749,-2.131 -4.749,-4.749v-26.44c0,-2.618 2.13,-4.749 4.749,-4.749h23.96c0.276,0 0.5,0.224 0.5,0.5c0,0.276 -0.224,0.5 -0.5,0.5h-23.96c-2.067,0 -3.749,1.682 -3.749,3.749v26.439c0,2.067 1.682,3.749 3.749,3.749h26.439c2.067,0 3.749,-1.682 3.749,-3.749v-13.574c0,-0.276 0.224,-0.5 0.5,-0.5c0.276,0 0.5,0.224 0.5,0.5v13.574c0,2.619 -2.13,4.75 -4.749,4.75z" fill="#472b29"></path><g><path d="M59.27,42.477c-1.597,-1.992 -4.459,-3.325 -7.736,-3.325c-3.935,0 -7.275,1.919 -8.536,4.599c-2.963,1.031 -4.969,4.104 -4.31,7.54c0.486,2.535 2.498,4.593 5.021,5.139c1.864,0.403 3.624,0.008 5.025,-0.894l0.406,4.021c0.043,0.425 0.59,0.57 0.838,0.222l3.271,-4.598c0.079,0.004 0.153,0.023 0.233,0.023c2.005,0 3.722,-1.192 4.511,-2.901c0.156,0.015 0.307,0.047 0.467,0.047c2.749,0 4.978,-2.229 4.978,-4.978c0,-2.471 -1.807,-4.506 -4.168,-4.895z" fill="#fdfcef"></path><path d="M49.604,60.475c-0.083,0 -0.167,-0.011 -0.251,-0.033c-0.392,-0.104 -0.671,-0.431 -0.711,-0.833l-0.33,-3.259c-1.444,0.716 -3.09,0.92 -4.709,0.57c-2.711,-0.586 -4.884,-2.811 -5.406,-5.534c-0.663,-3.458 1.198,-6.802 4.44,-8.035c1.439,-2.818 4.981,-4.698 8.896,-4.698c3.251,0 6.227,1.255 8.005,3.366c2.561,0.511 4.398,2.733 4.398,5.355c0,3.021 -2.457,5.478 -5.478,5.478c-0.061,0 -0.119,-0.003 -0.178,-0.009c-0.955,1.749 -2.797,2.86 -4.793,2.863l-3.104,4.364c-0.183,0.259 -0.473,0.405 -0.779,0.405zM48.733,55.036c0.074,0 0.148,0.017 0.217,0.05c0.157,0.075 0.263,0.227 0.28,0.4l0.406,4.021l3.204,-4.616c0.099,-0.138 0.261,-0.223 0.432,-0.209c0.052,0.002 0.102,0.009 0.151,0.016c0.006,0 0.012,0 0.019,0c1.783,0 3.367,-1.023 4.097,-2.603c0.089,-0.192 0.286,-0.316 0.501,-0.288l0.183,0.022c0.078,0.01 0.156,0.022 0.237,0.022c2.469,0 4.478,-2.009 4.478,-4.478c0,-2.193 -1.577,-4.045 -3.749,-4.403c-0.122,-0.02 -0.231,-0.084 -0.309,-0.18c-1.575,-1.965 -4.321,-3.138 -7.346,-3.138c-3.622,0 -6.87,1.733 -8.084,4.312c-0.057,0.122 -0.161,0.215 -0.288,0.259c-2.89,1.006 -4.564,3.938 -3.982,6.973c0.448,2.335 2.311,4.242 4.635,4.745c1.625,0.351 3.275,0.058 4.648,-0.826c0.082,-0.052 0.176,-0.079 0.27,-0.079z" fill="#472b29"></path></g></g></g></svg>